<svg width="30" height="29" viewBox="0 0 30 29" fill="none" xmlns="http://www.w3.org/2000/svg">
<path d="M8.99998 24.3333C10.104 24.3333 11 25.2293 11 26.3333C11 27.4373 10.104 28.3333 8.99998 28.3333C7.89598 28.3333 6.99998 27.4373 6.99998 26.3333C6.99998 25.2293 7.89598 24.3333 8.99998 24.3333ZM25 24.3333C26.104 24.3333 27 25.2293 27 26.3333C27 27.4373 26.104 28.3333 25 28.3333C23.896 28.3333 23 27.4373 23 26.3333C23 25.2293 23.896 24.3333 25 24.3333ZM5.47598 0.600006C6.01064 0.600006 6.46264 0.996006 6.53331 1.52534L7.25598 6.94934H28.3333C29.0066 6.94934 29.5106 7.56534 29.3786 8.22534L26.84 20.924C26.74 21.4227 26.3026 21.7813 25.7933 21.7813H8.01598C7.48131 21.7813 7.02931 21.3853 6.95864 20.8547L4.54264 2.73334H1.66664C1.07731 2.73334 0.599976 2.25601 0.599976 1.66667C0.599976 1.07734 1.07731 0.600006 1.66664 0.600006H5.47598ZM27.032 9.08267H7.54131L8.94931 19.648H24.92L27.0333 9.08267H27.032Z" fill="white"/>
</svg>
