<svg width="16" height="16" viewBox="0 0 16 16" fill="none" xmlns="http://www.w3.org/2000/svg">
<path d="M11.4525 9.73568H10.7668L10.5238 9.50136C11.3744 8.51203 11.8864 7.22763 11.8864 5.83041C11.8864 2.71488 9.36079 0.189468 6.24497 0.189468C3.12915 0.189468 0.603516 2.71488 0.603516 5.83041C0.603516 8.94595 3.12915 11.4714 6.24497 11.4714C7.64232 11.4714 8.92684 10.9593 9.91626 10.1089L10.1506 10.3518V11.0374L14.4902 15.3679L15.7834 14.0749L11.4525 9.73568ZM6.24497 9.73568C4.08386 9.73568 2.33935 7.99133 2.33935 5.83041C2.33935 3.6695 4.08386 1.92514 6.24497 1.92514C8.40609 1.92514 10.1506 3.6695 10.1506 5.83041C10.1506 7.99133 8.40609 9.73568 6.24497 9.73568Z" fill="#787878"/>
</svg>
