<svg width="14" height="14" viewBox="0 0 14 14" fill="none" xmlns="http://www.w3.org/2000/svg">
<path fill-rule="evenodd" clip-rule="evenodd" d="M3.43306 0.25807C3.67714 0.0139929 4.07286 0.0139929 4.31694 0.25807L6.81694 2.75807C7.06102 3.00215 7.06102 3.39787 6.81694 3.64195C6.57286 3.88603 6.17714 3.88603 5.93306 3.64195L4.5 2.20889V10.075C4.5 10.4202 4.22018 10.7 3.875 10.7C3.52982 10.7 3.25 10.4202 3.25 10.075V2.20889L1.81694 3.64195C1.57286 3.88603 1.17714 3.88603 0.933058 3.64195C0.688981 3.39787 0.688981 3.00215 0.933058 2.75807L3.43306 0.25807ZM9.5 11.6911V3.20001C9.5 2.85483 9.77982 2.57501 10.125 2.57501C10.4702 2.57501 10.75 2.85483 10.75 3.20001V11.6911L12.1831 10.2581C12.4271 10.014 12.8229 10.014 13.0669 10.2581C13.311 10.5021 13.311 10.8979 13.0669 11.1419L10.5669 13.6419C10.3229 13.886 9.92714 13.886 9.68306 13.6419L7.18306 11.1419C6.93898 10.8979 6.93898 10.5021 7.18306 10.2581C7.42714 10.014 7.82286 10.014 8.06694 10.2581L9.5 11.6911Z" fill="#38383D"/>
</svg>
