<?xml version="1.0" standalone="no"?>
<!DOCTYPE svg PUBLIC "-//W3C//DTD SVG 20010904//EN"
 "http://www.w3.org/TR/2001/REC-SVG-20010904/DTD/svg10.dtd">
<svg version="1.0" xmlns="http://www.w3.org/2000/svg"
 width="100.000000pt" height="100.000000pt" viewBox="0 0 100.000000 100.000000"
 preserveAspectRatio="xMidYMid meet">
<metadata>
Created by potrace 1.16, written by Peter Selinger 2001-2019
</metadata>
<g transform="translate(0.000000,100.000000) scale(0.100000,-0.100000)"
fill="#000000" stroke="none">
<path d="M470 686 c0 -8 -9 -18 -20 -21 -11 -3 -20 -10 -20 -15 0 -12 -200
-210 -212 -210 -4 0 -8 -7 -8 -15 0 -9 -7 -18 -15 -21 -21 -9 -21 -74 1 -74 9
0 18 -9 21 -20 4 -15 14 -20 39 -20 23 0 34 5 34 14 0 8 9 18 20 21 11 3 20
11 20 16 0 5 39 47 87 94 l87 85 24 -23 c65 -59 152 -149 152 -157 0 -5 9 -12
20 -15 11 -3 20 -13 20 -21 0 -9 11 -14 36 -14 27 0 37 5 41 19 3 11 11 22 19
25 20 8 19 76 -1 76 -8 0 -15 7 -15 15 0 8 -4 15 -8 15 -12 0 -212 198 -212
210 0 5 -9 12 -20 15 -11 3 -20 13 -20 21 0 9 -11 14 -35 14 -24 0 -35 -5 -35
-14z"/>
</g>
</svg>
