<svg width="13" height="12" viewBox="0 0 13 12" fill="none" xmlns="http://www.w3.org/2000/svg">
<mask id="mask0_1_501" style="mask-type:luminance" maskUnits="userSpaceOnUse" x="1" y="1" width="11" height="11">
<path d="M1.07001 1.5H11.07V11.5H1.07001V1.5Z" fill="white"/>
</mask>
<g mask="url(#mask0_1_501)">
<path d="M6.51802 2.02901C6.47665 1.94554 6.41279 1.87529 6.33363 1.82618C6.25448 1.77706 6.16317 1.75104 6.07002 1.75104C5.97686 1.75104 5.88556 1.77706 5.8064 1.82618C5.72724 1.87529 5.66338 1.94554 5.62202 2.02901L4.35702 4.59001L1.52902 5.00001C1.43646 5.01328 1.34948 5.05224 1.27795 5.11246C1.20643 5.17267 1.15322 5.25174 1.12437 5.34068C1.09552 5.42962 1.09219 5.52487 1.11475 5.61561C1.13732 5.70635 1.18487 5.78894 1.25202 5.85401L3.29802 7.84801L2.81502 10.664C2.79897 10.7561 2.80906 10.8509 2.84415 10.9375C2.87923 11.0241 2.93791 11.0992 3.01351 11.1542C3.08911 11.2092 3.17861 11.2419 3.27186 11.2486C3.3651 11.2552 3.45835 11.2357 3.54102 11.192L6.07002 9.86301L8.60002 11.193C8.68258 11.2363 8.77559 11.2556 8.86855 11.2488C8.96152 11.242 9.05074 11.2094 9.12614 11.1546C9.20153 11.0998 9.26011 11.025 9.29525 10.9387C9.3304 10.8523 9.3407 10.7579 9.32502 10.666L8.84202 7.84901L10.888 5.85501C10.9549 5.7899 11.0022 5.70738 11.0246 5.61679C11.0469 5.5262 11.0435 5.43115 11.0147 5.34239C10.9859 5.25363 10.9328 5.17472 10.8615 5.11456C10.7901 5.05441 10.7034 5.01542 10.611 5.00201L7.78302 4.59001L6.51802 2.02901Z" fill="#DDDDE3"/>
</g>
</svg>
