<svg width="17" height="16" viewBox="0 0 17 16" fill="none" xmlns="http://www.w3.org/2000/svg">
<g clip-path="url(#clip0_1_13336)">
<g clip-path="url(#clip1_1_13336)">
<path d="M8.10976 1.33362C4.43376 1.33362 1.44336 4.32402 1.44336 8.00002C1.44336 11.676 4.43376 14.6672 8.10976 14.6672C11.7858 14.6672 14.777 11.676 14.777 8.00002C14.777 4.32402 11.7858 1.33362 8.10976 1.33362ZM8.10976 2.15442C11.3338 2.15442 13.9562 4.77682 13.9562 8.00002C13.9562 11.224 11.3338 13.8464 8.10976 13.8464C4.88576 13.8464 2.26416 11.224 2.26416 8.00002C2.26416 4.77602 4.88656 2.15442 8.10976 2.15442ZM8.18656 7.14722C7.96016 7.14722 7.77696 7.33122 7.77696 7.55762V11.0448C7.77696 11.2712 7.96096 11.4552 8.18656 11.4552C8.41376 11.4552 8.59696 11.2712 8.59696 11.0448V7.55762C8.59696 7.33122 8.41296 7.14722 8.18656 7.14722ZM8.21616 4.65602C7.83696 4.65602 7.52976 4.96322 7.52976 5.34242C7.52976 5.72082 7.83696 6.02802 8.21616 6.02802C8.59536 6.02802 8.90256 5.72082 8.90256 5.34242C8.90256 4.96322 8.59536 4.65602 8.21616 4.65602Z" fill="#017FFF"/>
</g>
</g>
<defs>
<clipPath id="clip0_1_13336">
<rect width="16" height="16" fill="white" transform="translate(0.109863)"/>
</clipPath>
<clipPath id="clip1_1_13336">
<rect width="16" height="16" fill="white" transform="translate(0.109863)"/>
</clipPath>
</defs>
</svg>
