<svg width="18" height="20" viewBox="0 0 18 20" fill="none" xmlns="http://www.w3.org/2000/svg">
<path fill-rule="evenodd" clip-rule="evenodd" d="M7.58611 1.45901C8.29411 0.583011 9.63011 0.582011 10.3391 1.45901L11.1171 2.42201C11.2571 2.59501 11.4871 2.66901 11.7011 2.61201L12.8971 2.29001C13.9841 1.99701 15.0661 2.78201 15.1241 3.90801L15.1871 5.14401C15.1991 5.36601 15.3401 5.56101 15.5481 5.64101L16.7041 6.08401C17.7561 6.48601 18.1701 7.75601 17.5551 8.70101L16.8801 9.74001C16.7581 9.92701 16.7581 10.168 16.8801 10.354L17.5551 11.392C18.1691 12.335 17.7581 13.606 16.7051 14.01L15.5481 14.452C15.3411 14.532 15.1981 14.727 15.1881 14.949L15.1241 16.185C15.0661 17.31 13.9861 18.096 12.8971 17.803L11.7011 17.482C11.4861 17.424 11.2571 17.499 11.1171 17.672L10.3391 18.634C9.63111 19.51 8.29611 19.512 7.58711 18.634L6.80811 17.672C6.66811 17.499 6.43911 17.424 6.22411 17.482L5.02911 17.803C3.94211 18.096 2.85911 17.312 2.80211 16.185L2.73811 14.949C2.72711 14.727 2.58511 14.532 2.37811 14.452L1.22011 14.01C0.169109 13.607 -0.245891 12.337 0.370109 11.392L1.04511 10.354C1.16511 10.168 1.16511 9.92701 1.04511 9.74001L0.370109 8.70101C-0.243891 7.75801 0.168109 6.48701 1.22011 6.08401L2.37711 5.64101C2.58511 5.56101 2.72711 5.36601 2.73811 5.14401L2.80211 3.90801C2.86011 2.78401 3.93911 1.99801 5.02911 2.29001L6.22411 2.61101C6.43911 2.66901 6.66811 2.59501 6.80811 2.42101L7.58611 1.45901ZM9.40011 2.21801C9.17511 1.93901 8.75011 1.93801 8.52511 2.21801L7.74711 3.18001C7.30711 3.72401 6.58711 3.95901 5.91111 3.77701L4.71511 3.45501C4.36911 3.36301 4.02511 3.61201 4.00711 3.97001L3.94311 5.20601C3.90711 5.90501 3.46211 6.51801 2.80911 6.76801L1.65311 7.21101C1.31811 7.33901 1.18611 7.74301 1.38211 8.04301L2.05711 9.08101C2.43911 9.66701 2.43911 10.425 2.05711 11.011L1.38211 12.049C1.18711 12.349 1.31711 12.753 1.65211 12.882L2.80911 13.324C3.46211 13.574 3.90711 14.187 3.94311 14.886L4.00711 16.122C4.02611 16.48 4.36911 16.73 4.71511 16.637L5.91111 16.315C6.06311 16.275 6.21711 16.255 6.37011 16.255C6.89611 16.255 7.40611 16.49 7.74711 16.912L8.52511 17.875C8.75011 18.153 9.17511 18.154 9.40011 17.875L10.1791 16.912C10.6191 16.368 11.3391 16.134 12.0141 16.315L13.2101 16.637C13.5561 16.73 13.9001 16.481 13.9181 16.122L13.9821 14.886C14.0181 14.187 14.4631 13.574 15.1171 13.324L16.2731 12.882C16.6071 12.754 16.7391 12.35 16.5431 12.049L15.8681 11.011C15.4871 10.425 15.4871 9.66701 15.8681 9.08101L16.5431 8.04301C16.7391 7.74301 16.6081 7.33901 16.2731 7.21101L15.1171 6.76801C14.4631 6.51801 14.0181 5.90501 13.9821 5.20601L13.9181 3.97001C13.9001 3.61201 13.5571 3.36201 13.2101 3.45501L12.0151 3.77701C11.3391 3.95901 10.6191 3.72401 10.1791 3.18001L9.40011 2.21801ZM11.9771 6.97101C12.1871 7.18101 12.2101 7.50601 12.0471 7.74101L11.9771 7.82401L6.34511 13.457C6.22811 13.574 6.07311 13.633 5.91911 13.633C5.76411 13.633 5.60911 13.574 5.49211 13.457C5.28211 13.247 5.25911 12.922 5.42211 12.687L5.49211 12.603L11.1241 6.97101C11.3601 6.73501 11.7421 6.73501 11.9771 6.97101ZM10.9471 11.22C11.6131 11.22 12.1541 11.76 12.1541 12.426C12.1541 13.092 11.6131 13.633 10.9471 13.633C10.2821 13.633 9.74011 13.092 9.74011 12.426C9.74011 11.761 10.2821 11.22 10.9471 11.22ZM6.52211 6.79401C7.18811 6.79401 7.72911 7.33601 7.72911 8.00101C7.72911 8.66701 7.18811 9.20801 6.52211 9.20801C5.85711 9.20801 5.31511 8.66701 5.31511 8.00101C5.31511 7.33601 5.85711 6.79401 6.52211 6.79401Z" fill="#0D5CB6"/>
</svg>
