<svg width="40" height="40" viewBox="0 0 40 40" fill="none" xmlns="http://www.w3.org/2000/svg"><g clip-path="url(#clip0_1915_309)"><path fill-rule="evenodd" clip-rule="evenodd" d="M20.4714 13.5286C20.2111 13.2683 19.789 13.2683 19.5286 13.5286L13.5286 19.5286C13.2683 19.789 13.2683 20.2111 13.5286 20.4714C13.789 20.7318 14.2111 20.7318 14.4714 20.4714L14.6667 20.2762V25.3333C14.6667 25.7015 14.9652 26 15.3334 26H18.6667C19.0349 26 19.3334 25.7015 19.3334 25.3333V22H20.6667V25.3333C20.6667 25.7015 20.9652 26 21.3334 26H24.6667C25.0349 26 25.3334 25.7015 25.3334 25.3333V20.2762L25.5286 20.4714C25.789 20.7318 26.2111 20.7318 26.4714 20.4714C26.7318 20.2111 26.7318 19.789 26.4714 19.5286L20.4714 13.5286ZM24 18.9428L20 14.9428L16 18.9428V24.6667H18V21.3333C18 20.9652 18.2985 20.6667 18.6667 20.6667H21.3334C21.7016 20.6667 22 20.9652 22 21.3333V24.6667H24V18.9428Z" fill="black" fill-opacity="0.88"></path></g><defs><clipPath id="clip0_1915_309"><rect width="13.3333" height="13.3333" fill="white" transform="translate(13.3334 13.3333)"></rect></clipPath></defs></svg>