<svg width="40" height="40" viewBox="0 0 40 40" fill="none" xmlns="http://www.w3.org/2000/svg"><g clip-path="url(#clip0_1915_310)"><path d="M19.3334 19.3333C19.3334 18.9652 19.6319 18.6667 20.0001 18.6667L22.0001 18.6667C22.3683 18.6667 22.6667 18.9652 22.6667 19.3333C22.6667 19.7015 22.3683 20 22.0001 20H20.0001C19.6319 20 19.3334 19.7015 19.3334 19.3333Z" fill="black" fill-opacity="0.88"></path><path d="M20.0001 16C19.6319 16 19.3334 16.2985 19.3334 16.6667C19.3334 17.0349 19.6319 17.3333 20.0001 17.3333L22.0001 17.3333C22.3683 17.3333 22.6667 17.0349 22.6667 16.6667C22.6667 16.2985 22.3683 16 22.0001 16L20.0001 16Z" fill="black" fill-opacity="0.88"></path><path d="M19.3334 22C19.3334 21.6318 19.6319 21.3333 20.0001 21.3333H22.0001C22.3683 21.3333 22.6667 21.6318 22.6667 22C22.6667 22.3682 22.3683 22.6667 22.0001 22.6667H20.0001C19.6319 22.6667 19.3334 22.3682 19.3334 22Z" fill="black" fill-opacity="0.88"></path><path d="M18.0001 17.3333C18.3683 17.3333 18.6667 17.0349 18.6667 16.6667C18.6667 16.2985 18.3683 16 18.0001 16C17.6319 16 17.3334 16.2985 17.3334 16.6667C17.3334 17.0349 17.6319 17.3333 18.0001 17.3333Z" fill="black" fill-opacity="0.88"></path><path d="M18.6667 19.3333C18.6667 19.7015 18.3683 20 18.0001 20C17.6319 20 17.3334 19.7015 17.3334 19.3333C17.3334 18.9652 17.6319 18.6667 18.0001 18.6667C18.3683 18.6667 18.6667 18.9652 18.6667 19.3333Z" fill="black" fill-opacity="0.88"></path><path d="M18.0001 22.6667C18.3683 22.6667 18.6667 22.3682 18.6667 22C18.6667 21.6318 18.3683 21.3333 18.0001 21.3333C17.6319 21.3333 17.3334 21.6318 17.3334 22C17.3334 22.3682 17.6319 22.6667 18.0001 22.6667Z" fill="black" fill-opacity="0.88"></path><path fill-rule="evenodd" clip-rule="evenodd" d="M14.6667 14.6667C14.6667 13.9303 15.2637 13.3333 16.0001 13.3333H24.0001C24.7365 13.3333 25.3334 13.9303 25.3334 14.6667V26C25.3334 26.2563 25.1865 26.4899 24.9555 26.6009C24.7246 26.7119 24.4504 26.6807 24.2503 26.5206L23.0496 25.56L22.1382 26.4714C21.8979 26.7116 21.5155 26.7328 21.2503 26.5206L20.0001 25.5204L18.7499 26.5206C18.4846 26.7328 18.1022 26.7116 17.862 26.4714L16.9506 25.56L15.7499 26.5206C15.5498 26.6807 15.2756 26.7119 15.0446 26.6009C14.8136 26.4899 14.6667 26.2563 14.6667 26V14.6667ZM24.0001 14.6667L16.0001 14.6667V24.6129L16.5836 24.1461C16.8489 23.9339 17.2313 23.9551 17.4715 24.1953L18.3829 25.1067L19.5836 24.1461C19.8271 23.9513 20.1731 23.9513 20.4165 24.1461L21.6173 25.1067L22.5287 24.1953C22.7689 23.9551 23.1513 23.9339 23.4165 24.1461L24.0001 24.6129V14.6667Z" fill="black" fill-opacity="0.88"></path></g><defs><clipPath id="clip0_1915_310"><rect width="13.3333" height="13.3333" fill="white" transform="translate(13.3334 13.3333)"></rect></clipPath></defs></svg>