<svg width="40" height="40" viewBox="0 0 40 40" fill="none" xmlns="http://www.w3.org/2000/svg"><path d="M17.3333 22C16.9651 22 16.6667 22.2985 16.6667 22.6667C16.6667 23.0349 16.9651 23.3333 17.3333 23.3333H19.3333C19.7015 23.3333 20 23.0349 20 22.6667C20 22.2985 19.7015 22 19.3333 22H17.3333Z" fill="black" fill-opacity="0.88"></path><path fill-rule="evenodd" clip-rule="evenodd" d="M14 15.3333C14 14.597 14.597 14 15.3333 14H24.6667C25.403 14 26 14.597 26 15.3333V24.6667C26 25.403 25.403 26 24.6667 26H15.3333C14.597 26 14 25.403 14 24.6667V15.3333ZM15.3333 15.3333H18V19.3333C18 19.7015 18.2985 20 18.6667 20H21.3333C21.7015 20 22 19.7015 22 19.3333V15.3333H24.6667V24.6667H15.3333V15.3333ZM19.3333 15.3333H20.6667V18.6667H19.3333V15.3333Z" fill="black" fill-opacity="0.88"></path></svg>