<svg width="40" height="40" viewBox="0 0 40 40" fill="none" xmlns="http://www.w3.org/2000/svg"><g clip-path="url(#clip0_1917_453)"><path fill-rule="evenodd" clip-rule="evenodd" d="M22.6667 17.3333C22.6667 19.1743 21.1743 20.6667 19.3333 20.6667C17.1242 20.6667 15.3333 22.4575 15.3333 24.6667C15.3333 25.0349 15.0349 25.3333 14.6667 25.3333C14.2985 25.3333 14 25.0349 14 24.6667C14 22.5145 15.2748 20.6601 17.1104 19.8173C16.4289 19.2069 16 18.3202 16 17.3333C16 15.4924 17.4924 14 19.3333 14C21.1743 14 22.6667 15.4924 22.6667 17.3333ZM19.3333 15.3333C18.2288 15.3333 17.3333 16.2288 17.3333 17.3333C17.3333 18.4379 18.2288 19.3333 19.3333 19.3333C20.4379 19.3333 21.3333 18.4379 21.3333 17.3333C21.3333 16.2288 20.4379 15.3333 19.3333 15.3333Z" fill="black" fill-opacity="0.88"></path><path fill-rule="evenodd" clip-rule="evenodd" d="M20.6315 21.2818C21.3675 20.5592 22.5025 20.4732 23.3333 21.024C24.1642 20.4732 25.2992 20.5592 26.0351 21.2818C26.8772 22.1087 26.8772 23.4544 26.0351 24.2813L23.8004 26.4757C23.5411 26.7303 23.1256 26.7303 22.8662 26.4757L20.6315 24.2813C19.7895 23.4544 19.7895 22.1087 20.6315 21.2818ZM21.5657 22.2332C21.8824 21.9223 22.4006 21.9223 22.7173 22.2332L22.8662 22.3795C23.1256 22.6341 23.5411 22.6341 23.8004 22.3795L23.9494 22.2332C24.266 21.9223 24.7843 21.9223 25.1009 22.2332C25.4108 22.5375 25.4108 23.0257 25.1009 23.3299L23.3333 25.0657L21.5657 23.3299C21.2559 23.0257 21.2559 22.5375 21.5657 22.2332Z" fill="black" fill-opacity="0.88"></path></g><defs><clipPath id="clip0_1917_453"><rect width="13.3333" height="13.3333" fill="white" transform="translate(13.3334 13.3334)"></rect></clipPath></defs></svg>