<svg width="33" height="10" viewBox="0 0 33 10" fill="none" xmlns="http://www.w3.org/2000/svg">
<path d="M6.23599 5.34185V1.16633C6.23599 0.858984 6.35266 0.587037 6.56899 0.370711C6.78531 0.154386 7.05726 0.037714 7.36461 0.037714C7.66985 0.037714 7.94017 0.152791 8.15577 0.366275C8.38035 0.579688 8.50646 0.852606 8.50646 1.16633V8.85814C8.50646 9.17505 8.38454 9.45399 8.15577 9.67144C7.93626 9.88874 7.65997 10 7.35137 10C7.01504 10 6.73283 9.84925 6.51795 9.60266C6.48919 9.57345 6.44522 9.52639 6.40932 9.46917L2.93288 4.64561V8.85814C2.93288 9.16458 2.8172 9.43638 2.60861 9.65801L2.60431 9.66257L2.59988 9.667C2.37966 9.88723 2.10171 10 1.79102 10C1.48367 10 1.21172 9.88333 0.995397 9.667C0.775172 9.44678 0.6624 9.16884 0.6624 8.85814V1.16608C0.640945 0.794465 0.772694 0.458564 1.08719 0.233926L1.09454 0.228675C1.35766 0.0492731 1.6573 -0.0388025 1.97506 0.0162903C2.27739 0.0598146 2.52961 0.21251 2.70887 0.460661L6.23599 5.34185Z" fill="#FF424E"/>
<path d="M17.3562 8.23322C16.9728 8.6592 16.5128 8.99573 15.976 9.2428C15.4393 9.48135 14.8812 9.60063 14.3019 9.60063C13.0665 9.60063 12.0229 9.14908 11.1709 8.246C10.3275 7.34291 9.90576 6.26091 9.90576 4.99999C9.90576 3.73907 10.3275 2.65707 11.1709 1.75398C12.0229 0.850897 13.058 0.399353 14.2763 0.399353C15.4947 0.399353 16.5255 0.859417 17.369 1.77954C18.221 2.69115 18.6469 3.76889 18.6469 5.01277C18.6469 6.25665 18.2167 7.33013 17.3562 8.23322ZM11.3626 4.99999C11.3626 5.86048 11.648 6.60169 12.2188 7.22363C12.7897 7.83705 13.4755 8.14376 14.2763 8.14376C15.0857 8.14376 15.7715 7.83279 16.3338 7.21085C16.9047 6.58039 17.1901 5.84344 17.1901 4.99999C17.1901 4.15654 16.9089 3.42385 16.3466 2.80191C15.7843 2.17145 15.0942 1.85622 14.2763 1.85622C13.467 1.85622 12.7769 2.16719 12.2061 2.78913C11.6438 3.40255 11.3626 4.1395 11.3626 4.99999Z" fill="#FF424E"/>
<path fill-rule="evenodd" clip-rule="evenodd" d="M16.1382 9.60775C15.5511 9.86867 14.9379 10 14.3018 10C12.9559 10 11.8074 9.50267 10.8804 8.52006L10.879 8.5186C9.96495 7.53989 9.50635 6.35983 9.50635 5C9.50635 3.64017 9.96495 2.46011 10.879 1.4814L10.8804 1.47994C11.8062 0.498603 12.9457 0 14.2763 0C15.609 0 16.7452 0.508839 17.662 1.5082C18.582 2.49325 19.0463 3.66791 19.0463 5.01278C19.0463 6.35768 18.5776 7.52833 17.6492 8.50463C17.2291 8.97023 16.7257 9.33734 16.143 9.60558L16.1382 9.60775ZM17.3562 8.23323C18.2167 7.33014 18.6469 6.25666 18.6469 5.01278C18.6469 3.7689 18.221 2.69116 17.369 1.77955C16.5255 0.859425 15.4947 0.399361 14.2763 0.399361C13.058 0.399361 12.0229 0.850905 11.1709 1.75399C10.3275 2.65708 9.90577 3.73908 9.90577 5C9.90577 6.26092 10.3275 7.34292 11.1709 8.24601C12.0229 9.14909 13.0665 9.60064 14.3019 9.60064C14.8812 9.60064 15.4393 9.48136 15.976 9.24281C16.5128 8.99574 16.9728 8.65921 17.3562 8.23323ZM16.0377 6.94282C16.5427 6.38512 16.7907 5.74347 16.7907 5C16.7907 4.25487 16.5458 3.61779 16.0503 3.06975L16.0485 3.06774C15.5592 2.51906 14.9761 2.25559 14.2763 2.25559C13.5842 2.25559 12.9992 2.51558 12.5004 3.059C12.0081 3.59604 11.7619 4.23567 11.7619 5C11.7619 5.76215 12.0109 6.40609 12.5121 6.95258C13.0111 7.48837 13.5924 7.74441 14.2763 7.74441C14.9682 7.74441 15.5481 7.48443 16.0377 6.94282ZM12.2188 7.22364C11.648 6.6017 11.3626 5.86049 11.3626 5C11.3626 4.13951 11.6438 3.40256 12.2061 2.78914C12.7769 2.1672 13.467 1.85623 14.2763 1.85623C15.0942 1.85623 15.7843 2.17146 16.3466 2.80192C16.9089 3.42386 17.1901 4.15655 17.1901 5C17.1901 5.84345 16.9047 6.5804 16.3338 7.21086C15.7715 7.8328 15.0857 8.14377 14.2763 8.14377C13.4755 8.14377 12.7897 7.83706 12.2188 7.22364Z" fill="#FF424E"/>
<path d="M23.8446 9.45361L23.7386 9.53308H23.7254C23.6989 9.53308 23.6592 9.54633 23.6062 9.57282H23.5665C23.54 9.58165 23.4958 9.58606 23.434 9.58606C23.381 9.58606 23.3413 9.58165 23.3148 9.57282H23.2751C23.2221 9.55516 23.1912 9.54633 23.1824 9.54633C23.1735 9.5375 23.1559 9.52867 23.1294 9.51984C23.1117 9.51101 23.0808 9.48893 23.0367 9.45361H23.0234C22.9881 9.42712 22.9528 9.39622 22.9175 9.3609C22.8821 9.31675 22.8556 9.28584 22.838 9.26818V9.25494C22.8291 9.24611 22.8159 9.22845 22.7982 9.20196C22.7894 9.16664 22.7806 9.14456 22.7718 9.13573L19.5135 1.41388C19.4428 1.22845 19.4428 1.04302 19.5135 0.857588C19.5929 0.672157 19.7254 0.544122 19.9108 0.473482C20.0874 0.394012 20.2684 0.394012 20.4539 0.473482C20.6481 0.544122 20.7806 0.672157 20.8512 0.857588L23.4473 6.99004L25.1559 2.92381C25.2795 2.62359 25.5046 2.47348 25.8314 2.47348C26.1669 2.47348 26.4009 2.62359 26.5333 2.92381L28.242 6.99004L30.8247 0.857588C30.9042 0.672157 31.0367 0.544122 31.2221 0.473482C31.4075 0.394012 31.5929 0.394012 31.7784 0.473482C31.9638 0.544122 32.0918 0.676572 32.1625 0.870833C32.242 1.05626 32.242 1.23728 32.1625 1.41388L28.9174 9.13573C28.8998 9.20637 28.8512 9.27701 28.7718 9.34765C28.7718 9.35648 28.7673 9.36973 28.7585 9.38739C28.7232 9.40505 28.6923 9.42712 28.6658 9.45361H28.6525L28.5333 9.53308H28.5201C28.5113 9.53308 28.5024 9.5375 28.4936 9.54633C28.4848 9.54633 28.4539 9.55516 28.4009 9.57282H28.3744C28.3479 9.58165 28.3038 9.58606 28.242 9.58606C28.189 9.58606 28.1492 9.58165 28.1227 9.57282H28.083C28.03 9.55516 27.9991 9.54633 27.9903 9.54633C27.9815 9.5375 27.9638 9.53308 27.9373 9.53308C27.9197 9.52425 27.8888 9.49776 27.8446 9.45361H27.8314C27.7519 9.40063 27.6945 9.33882 27.6592 9.26818C27.6239 9.25052 27.5974 9.20637 27.5797 9.13573L25.8446 5.02977L24.1095 9.13573C24.1007 9.16222 24.083 9.20196 24.0565 9.25494L23.9638 9.34765C23.9638 9.35648 23.9594 9.36973 23.9506 9.38739C23.9329 9.39622 23.9064 9.41829 23.8711 9.45361H23.8446Z" fill="#FF424E"/>
<path fill-rule="evenodd" clip-rule="evenodd" d="M27.8313 9.45364C27.7518 9.40066 27.6944 9.33885 27.6591 9.26821C27.6238 9.25055 27.5973 9.2064 27.5796 9.13576L25.8445 5.0298L24.1094 9.13576C24.1006 9.16225 24.0829 9.20199 24.0564 9.25497L23.9637 9.34768C23.9637 9.35651 23.9593 9.36976 23.9505 9.38742C23.9328 9.39625 23.9063 9.41832 23.871 9.45364H23.8445L23.7385 9.53311H23.7253C23.6988 9.53311 23.6591 9.54636 23.6061 9.57285H23.5664C23.5399 9.58168 23.4957 9.58609 23.4339 9.58609C23.3809 9.58609 23.3412 9.58168 23.3147 9.57285H23.275C23.222 9.55519 23.1911 9.54636 23.1823 9.54636C23.1734 9.53753 23.1558 9.5287 23.1293 9.51987C23.1116 9.51104 23.0807 9.48896 23.0366 9.45364H23.0233C22.988 9.42715 22.9527 9.39625 22.9174 9.36093C22.882 9.31678 22.8555 9.28587 22.8379 9.26821V9.25497C22.829 9.24614 22.8158 9.22848 22.7981 9.20199C22.7893 9.16667 22.7805 9.14459 22.7717 9.13576L19.5134 1.41391C19.4427 1.22848 19.4427 1.04305 19.5134 0.857616C19.5928 0.672185 19.7253 0.54415 19.9107 0.47351C20.0873 0.39404 20.2683 0.39404 20.4538 0.47351C20.648 0.54415 20.7805 0.672185 20.8511 0.857616L23.4472 6.99007L25.1558 2.92384C25.2794 2.62362 25.5045 2.47351 25.8313 2.47351C26.1668 2.47351 26.4008 2.62362 26.5332 2.92384L28.2419 6.99007L30.8246 0.857616C30.9041 0.672185 31.0366 0.54415 31.222 0.47351C31.4074 0.39404 31.5928 0.39404 31.7783 0.47351C31.9637 0.54415 32.0917 0.6766 32.1624 0.870861C32.2419 1.05629 32.2419 1.23731 32.1624 1.41391L28.9173 9.13576C28.8997 9.2064 28.8511 9.27704 28.7717 9.34768C28.7717 9.35651 28.7672 9.36976 28.7584 9.38742C28.7231 9.40508 28.6922 9.42715 28.6657 9.45364H28.6524L28.5332 9.53311H28.52C28.5112 9.53311 28.5023 9.53753 28.4935 9.54636C28.4847 9.54636 28.4538 9.55519 28.4008 9.57285H28.3743C28.3478 9.58168 28.3037 9.58609 28.2419 9.58609C28.1889 9.58609 28.1491 9.58168 28.1226 9.57285H28.0829C28.0299 9.55519 27.999 9.54636 27.9902 9.54636C27.9814 9.53753 27.9637 9.53311 27.9372 9.53311C27.9196 9.52428 27.8887 9.49779 27.8445 9.45364H27.8313ZM27.6169 9.80822L27.6016 9.79803C27.5014 9.73121 27.4103 9.64678 27.3401 9.54164C27.252 9.45282 27.2094 9.34562 27.1876 9.27166L25.8444 6.09314L24.4955 9.28524C24.477 9.33615 24.4513 9.39055 24.4266 9.44007L24.3965 9.50015L24.3171 9.57962L24.2589 9.69593L24.1692 9.74078C24.1675 9.74245 24.1656 9.7443 24.1636 9.74632L24.0424 9.86755H23.9824L23.8765 9.94702H23.7832L23.7037 9.98676H23.6118C23.5445 9.99861 23.48 10 23.4338 10C23.3888 10 23.33 9.99804 23.2678 9.98676H23.2077L23.144 9.96551C23.1381 9.96356 23.1329 9.96181 23.1281 9.96026H23.0107L22.9369 9.88637C22.9257 9.88057 22.9146 9.87422 22.9036 9.86755H22.8853L22.7749 9.78477C22.722 9.74511 22.672 9.701 22.6246 9.6536L22.6084 9.63739L22.5941 9.61949C22.5783 9.59978 22.566 9.58485 22.5567 9.57401C22.5503 9.56662 22.5467 9.56261 22.5453 9.56111L22.4239 9.43966V9.38691L22.4139 9.37193L22.4022 9.32496L19.1291 1.56809C19.1291 1.56809 19.2333 1.84159 19.1265 1.56126C19.0197 1.28092 19.0197 0.990603 19.1265 0.710267L19.1295 0.702353L19.1329 0.694569C19.2541 0.411709 19.4656 0.203476 19.752 0.0910897C20.0322 -0.0314896 20.3261 -0.0283889 20.6061 0.0885468C20.8999 0.198487 21.1199 0.407219 21.2349 0.702463L23.4457 5.92497L24.773 2.76625L24.7735 2.76486C24.8604 2.55466 24.9944 2.37059 25.1877 2.2417C25.3813 2.11265 25.6033 2.0596 25.8312 2.0596C26.0617 2.0596 26.2855 2.11174 26.4818 2.23771C26.6788 2.36408 26.8189 2.54597 26.9119 2.75677L26.9148 2.76347L28.2422 5.92265L30.4441 0.694566C30.5658 0.410601 30.7785 0.201845 31.0666 0.089773C31.3513 -0.0299299 31.6489 -0.0299244 31.9335 0.0897902C32.2287 0.204718 32.4374 0.424772 32.5473 0.718553C32.665 1.00046 32.6674 1.29646 32.5422 1.57843L29.3084 9.27351C29.2703 9.39603 29.2014 9.49795 29.1242 9.58123L29.0669 9.69593L28.9506 9.75408L28.8371 9.86755H28.7777L28.7174 9.90775L28.6649 9.96026H28.5475C28.5428 9.96181 28.5375 9.96356 28.5316 9.96551L28.4679 9.98676H28.4198C28.3525 9.99861 28.288 10 28.2418 10C28.1968 10 28.1379 9.99804 28.0757 9.98676H28.0157L27.952 9.96551C27.9461 9.96356 27.9408 9.96181 27.936 9.96026H27.8187L27.7714 9.91302L27.7521 9.90332C27.6954 9.875 27.6514 9.83805 27.6314 9.82088C27.6266 9.81676 27.6217 9.81253 27.6169 9.80822Z" fill="#FF424E"/>
</svg>
